<svg id="Layer_1" data-name="Layer 1" xmlns="http://www.w3.org/2000/svg" viewBox="0 0 538.62 163.93"><defs><style>.cls-1{fill:#e3222b;}.cls-2{fill:#ed6629;}.cls-3{fill:#f8c118;}.cls-4{fill:#bdd231;}.cls-5{fill:#d4dd28;}.cls-6{fill:#c8205e;}.cls-7{fill:#e51c56;}.cls-8{fill:#754096;}.cls-9{fill:#71b946;}.cls-10{fill:#333588;}.cls-11{fill:#374094;}.cls-12{fill:#38af4a;}.cls-13{fill:#292e6c;}.cls-14{fill:#18ab54;}.cls-15{fill:#0d7f41;}.cls-16{fill:#ec6925;}.cls-17{fill:#f6c219;}.cls-18{fill:#14143c;}</style></defs><title>new logo</title><rect class="cls-1" x="302.75" y="0.04" width="10.42" height="10.36"/><rect class="cls-2" x="313.12" y="0.04" width="10.77" height="10.36"/><rect class="cls-3" x="323.85" y="0.04" width="10.77" height="10.36"/><rect class="cls-4" x="334.54" y="0.04" width="10.77" height="10.36"/><rect class="cls-5" x="345.23" y="0.04" width="10.77" height="10.36"/><rect class="cls-6" x="313.12" y="10.3" width="10.77" height="11.02"/><rect class="cls-7" x="323.85" y="10.3" width="10.77" height="11.02"/><rect class="cls-8" x="334.54" y="10.3" width="10.77" height="11.02"/><rect class="cls-9" x="345.23" y="10.3" width="10.77" height="11.02"/><rect class="cls-10" x="323.85" y="21.32" width="10.77" height="10.36"/><rect class="cls-11" x="334.54" y="21.32" width="10.77" height="10.36"/><rect class="cls-12" x="345.23" y="21.32" width="10.77" height="10.36"/><rect class="cls-13" x="334.54" y="31.63" width="10.77" height="10.82"/><rect class="cls-14" x="345.23" y="31.63" width="10.77" height="10.82"/><rect class="cls-15" x="345.23" y="42.46" width="10.77" height="10.82"/><rect class="cls-12" x="318.23" y="39.41" width="8.95" height="8.99"/><rect class="cls-16" x="299.96" y="42.86" width="6.93" height="6.96"/><rect class="cls-17" x="303.79" y="27.93" width="8.33" height="8.36"/><path class="cls-18" d="M125.89,45.46V163.69H97.52V97.48L62.41,119.85l-34-22.19v66H0V45.46L62.78,86Z"/><path class="cls-18" d="M227,125.49l-68.39-.18c1.27,3.63,2.54,5.27,5.27,8A23.64,23.64,0,0,0,180.28,140a23.92,23.92,0,0,0,16.37-6.91l.73-.73L221,139.86c-9.83,15.09-20.19,23.64-40.57,23.83A46.84,46.84,0,1,1,227,116.58C227,117.85,227.21,124.22,227,125.49Zm-63.3-24.92a23.91,23.91,0,0,0-4.91,7.64h42.74a24.14,24.14,0,0,0-5.09-7.82,23.57,23.57,0,0,0-16.37-6.55A23,23,0,0,0,163.73,100.57Z"/><path class="cls-18" d="M291.6,68.37v26C272,94.38,260,110.21,260,122.21v41.48H234.49V70H260V84C264.13,72.38,272.68,68.37,291.6,68.37Z"/><path class="cls-18" d="M325.25,163.69H299.79V70.19h25.46Z"/><path class="cls-18" d="M409.47,163.69V153a46.91,46.91,0,1,1-.18-72.21v-44h25.46l.18,127Zm-6.73-46.93a23.92,23.92,0,0,0-6.91-16.37,23.57,23.57,0,0,0-16.37-6.55,23.1,23.1,0,0,0,.18,46.2A24,24,0,0,0,396,133.13,23,23,0,0,0,402.74,116.76Z"/><path class="cls-18" d="M538.61,69.65v94H513.15V153.14c-5.64,7.27-15.1,10.18-23.65,10.18A46.84,46.84,0,1,1,489,69.65c8.91,0,18.55,3.27,24.19,10.37V69.65Zm-26.37,46.74A22.41,22.41,0,0,0,505.33,100a22,22,0,0,0-16.19-6.54,23,23,0,1,0,23.1,22.91Z"/></svg>